<svg xmlns="http://www.w3.org/2000/svg" xmlns:xlink="http://www.w3.org/1999/xlink" width="360.249" height="65.413" viewBox="0 0 360.249 65.413"><g opacity=".2"><defs><path id="a" d="M0 0h360.249v65.413H0z"/></defs><clipPath id="b"><use xlink:href="#a" overflow="visible"/></clipPath><path clip-path="url(#b)" d="M255.655 42.843c-.007-.014-.016-.039-.022-.039-.038.003-.075.011-.113.017.006.015.014.044.02.043.038-.003.076-.013.115-.021"/><path clip-path="url(#b)" d="M359.9 29.109c-.416-.002-.832.006-1.248-.007-.266-.008-.506-.059-.75-.255-.399-.321-.864-.507-1.345-.275l-.26.565c-.311-.267-.585-.438-.82.02-.033.065-.181.057-.276.075-.338.063-.679.111-1.013.189-.159.037-.308.129-.479.205 0 .485.005.932-.004 1.377-.004.19.013.42-.072.559-.157.256-.159.524-.163.802-.018 1.151-.028 2.302-.047 3.453-.003.218.034.455-.139.629h-1.021c-.146-.17-.226-.334-.342-.383-.157-.065-.251.087-.333.247-.036.07-.159.096-.247.114-.333.07-.669.129-1.013.193a3.24 3.24 0 0 0-.109.912v3.499a.405.405 0 0 1-.159.124c-.295.132-.353.426-.368.755-.014.314.047.639-.066 1.011-.029-.125-.052-.178-.053-.23l-.054-7.077-.003-.674c-.002-.175-.031-.342-.177-.433-.231-.145-.254-.383-.261-.647-.008-.327.055-.667-.078-.996-.115-.021-.213-.066-.302-.049-.312.06-.605.085-.93-.008-.297-.085-.641-.084-.923.142-.429.344-.812.73-.847 1.393-.003.049-.047.094-.085.167l-.464.16c-.188.098-.008.492-.349.506-.022-.16-.061-.316-.064-.475-.012-.505-.005-1.011-.017-1.517-.004-.157-.047-.313-.074-.479-.76-.167-1.491-.148-2.218-.116-.059-.082-.104-.143-.146-.206-.276-.412-.355-.412-.634.004-.044.065-.073.163-.13.194-.246.136-.245.387-.26.643-.018.328.055.675-.135.979-.544.156-1.126-.083-1.691.214-.007.282-.019.558-.02.835-.013 3.033-.021 6.067-.038 9.1-.001.243.062.506-.12.754-.713 0-1.445.033-2.175-.009-.75-.042-1.499.162-2.298.016-.015-.309-.039-.585-.039-.86-.004-1.236-.002-2.472-.008-3.708-.001-.104-.049-.206-.072-.295l-.684-.222a487.07 487.07 0 0 1-.112-1.346l-.492-.275c-.026-1.175-.03-2.356-.541-3.455l-.581-.118c-.079.077-.132.105-.15.151-.354.846-.462 1.751-.485 2.677-.006.193.077.284.23.371.166.093.223.288.093.53-.277.03-.619-.182-.872.188-.098.409.026.871-.124 1.375-.373-.367-.548-.095-.71.198-.017 2.063-.034 4.113-.054 6.162-.002.252-.009.505-.024.757-.007.111-.044.218-.224.195-.134-.225-.077-.509-.077-.773-.004-3.371-.003-6.741-.003-10.111 0-.899.008-1.798-.004-2.696-.003-.217-.003-.501-.113-.636-.201-.24-.185-.498-.201-.773-.011-.186-.047-.37-.078-.603l-6.185-.104c-.066.521-.49.325-.787.492-.014.169-.031.333-.041.496-.04.728-.077 1.456-.118 2.183-.023.419-.074.837-.077 1.256-.024 2.752-.036 5.504-.057 8.256a249.211 249.211 0 0 1-.048 3.117c-.019.852-.117.95-.849 1.006-.31.024-.636-.018-.945.169-.108.646-.013 1.295-.091 1.932-.028-.038-.066-.069-.079-.11-.016-.051-.002-.113-.015-.167-.119-.473-.207-.529-.633-.433a4.336 4.336 0 0 1-.575.095c-.197.017-.341-.122-.382-.323-.089-.434-.205-.878-.195-1.315.011-.631-.242-1.05-.644-1.488-.168.258-.354.457-.443.702-.108.298-.132.636-.194.971-.471.171-.971-.06-1.454.125-.024.12-.074.23-.063.332.041.394-.076.715-.241 1.029V28.468h-10.075v17.957l-.153-.8c-.185-.017-.329-.037-.475-.042-.488-.016-.987.038-1.465-.057-.503-.1-.95.068-1.434.138-.03.141-.071.246-.071.352-.003.319-.025.61-.311.793-.037.024.019.237.031.363-.28.356-.719.071-1.062.342-.021.169-.054.356-.068.546-.021.28-.023.561-.046.841-.018.211-.127.32-.283.304-.159-.016-.292-.094-.309-.292-.021-.251-.022-.504-.021-.757.01-4.943.022-9.886.028-14.829 0-.3.075-.616-.116-.967-1.696-.029-3.422-.149-5.137.266-.114.329-.074.641-.077.944-.019 2.359-.031 4.718-.052 7.077-.003.271.061.563-.136.83l-.821.12c-.161.696.024 1.39-.196 2.036-.127.016-.222.029-.317.039-.422.045-.668.333-.753.784-.062.325-.059.665-.102.995-.035.268.071.565-.144.834-.408-.045-.843.011-1.314-.22.169-.455-.168-.794-.185-1.188-.019-.458-.346-.726-.369-1.17-.156.165-.242.358-.472.354-.189-.003-.378.098-.569.119a1 1 0 0 0-.632.301l-.03 1.32c-.003.126-.05.207-.199.196-.008-.162-.022-.328-.022-.494 0-.534.009-1.067.006-1.601 0-.167.033-.399-.046-.489-.28-.317-.235-.791-.476-1.151l-.759-.138-.217-.494h-1.229c-.186-.545.017-1.104-.159-1.595-.096-.034-.164-.078-.232-.079-.609-.004-1.22.031-1.827-.006a5.081 5.081 0 0 0-.552.002c-.658.021-1.316.041-1.975.064-.288.01-.586-.037-.896.13-.051.269-.1.556-.156.841-.188.939-.301 1.884-.26 2.844.018.416.003.832.006 1.248.001.229-.023.438-.249.569-.173.1-.183.279-.184.452-.005.613.003 1.225-.015 1.836-.008.239-.022.5-.12.71-.121.259-.134.514-.145.783-.04 1.002-.085 2.004-.131 3.006-.003.041-.038.08-.088.18-.062-1.005-.124-1.953-.176-2.901-.021-.364.018-.728-.201-1.064-.083-.129-.074-.329-.079-.498-.017-.49-.016-.979-.026-1.469-.005-.267-.021-.533-.031-.815l-.735-.309c-.218-.318.011-.719-.276-1.005-.714-.17-1.448-.043-2.178-.052-.135-.002-.271.081-.45.138-.012.352-.015.69-.038 1.028-.014.191-.01.41-.102.563-.151.252-.152.511-.156.778-.01.661-.006 1.322-.018 1.983-.004.188-.043.376-.067.578-.277.067-.509.151-.746.176-.294.03-.467-.118-.511-.406-.037-.242-.045-.488-.07-.731-.02-.2-.07-.387-.291-.528-.469.033-.98-.075-1.532.096-.043.203-.09.413-.129.625-.04.209.04.444-.154.646-.487.051-.985.085-1.506-.162-.037.471-.338.655-.681.763l-.114.708c-.17-.072-.297-.153-.434-.177-.136-.023-.316-.038-.418.03-.509.346-1.014.197-1.557.065-.017-.245-.041-.462-.045-.68-.021-1.077-.044-2.154-.051-3.231-.044-6.537-.083-13.075-.125-19.612a15.963 15.963 0 0 0-.033-1.027c-.009-.112-.051-.274-.131-.319-.271-.155-.245-.4-.246-.642-.003-.881.003-1.763-.001-2.644-.002-.636-.011-1.273-.023-1.909 0-.067-.048-.133-.082-.221l-.52-.125c-.252-.385-.418-.752-.36-1.193.127-.944-.203-1.826-.36-2.714l-.438-.181c.036-.423-.16-.727-.39-1.018a3.815 3.815 0 0 1-.296-.419 1.75 1.75 0 0 1-.167-.397c-.061-.208-.082-.429-.151-.634-.196-.579-.106-1.212-.345-1.783-.035-.083-.004-.193-.007-.292-.004-.121.027-.262-.023-.359-.176-.332-.087-.669-.074-1.008.017-.415.094-.85-.001-1.24-.139-.564-.105-1.151-.292-1.708-.062-.182-.067-.376-.213-.525-.224-.229-.245-.513-.236-.818.028-.951.063-1.896-.045-2.853-.113-.989-.066-1.997-.092-3.121-.094.696-.229 1.255-.22 1.842.02 1.218-.116 2.436-.012 3.655.014.144-.024.293-.019.438.011.336-.1.622-.315.876-.075.088-.169.195-.177.3-.018.244-.052.46-.173.691-.101.194-.039.472-.053.712-.007.097.002.204-.037.287-.178.375-.147.788-.083 1.153.142.798-.107 1.549-.174 2.318-.055.628-.233 1.244-.323 1.87-.061.42-.204.8-.411 1.163-.085.148-.198.287-.252.446-.058.176-.06.37-.085.552l-.683.255c-.106.637-.245 1.231-.296 1.833-.052.604.016 1.218-.097 1.84-.347.072-.657.195-.923.549l-.001 1.762c-.001.979 0 1.957-.01 2.935-.002.138-.021.347-.105.398-.271.161-.242.389-.242.638-.003 1.418-.017 2.835-.021 4.253-.01 2.74-.016 5.481-.023 8.221-.005 1.787-.008 3.574-.017 5.361-.001.216-.031.432-.048.656-.493.075-.888-.09-1.266-.258l-.153-1.864c-.914-.002-1.746.103-2.51.665.152.42.22.867.016 1.312-.092.011-.173.046-.232.023-.285-.111-.548-.172-.824.049-.118.095-.299.025-.396-.094-.188-.227-.335-.473-.355-.787a9.105 9.105 0 0 0-.142-1.09c-.043-.23-.181-.32-.423-.322-.686-.003-1.371-.002-2.057.004-.146.002-.291.032-.437.053-.189.026-.313.129-.351.321-.023.12-.042.242-.057.363-.041.339-.018.702-.135 1.012-.173.453-.181.908-.186 1.37-.008.734.012 1.469.004 2.204-.004.338.023.686-.132 1.034-.42.062-.535.335-.507.734.018.261.066.54-.124.838-.38.023-.794.045-1.206.075-.341.025-.683.048-1.021.098-.165.024-.35.071-.475.17-.123.097-.182.274-.278.43-.225.01-.442.023-.66.027-.043.001-.086-.037-.162-.071-.218-.38-.014-.846-.143-1.261-.393-.251-.834-.041-1.249-.167l-.502-1.151-.763-.149-.169-.515-.956-.364c-.328.321-.675.364-1.084.211-.229-.087-.46-.119-.616-.344-.057-.08-.211-.104-.325-.126-.214-.04-.432-.081-.647-.081-.108 0-.216.087-.387.164-.005-.559-.013-1.071-.016-1.583-.012-2.498-.021-4.995-.037-7.492-.002-.217.018-.474-.088-.641-.186-.297-.164-.602-.185-.917-.021-.334.067-.682-.07-.973-.232-.173-.457-.137-.675-.139-.415-.002-.832.006-1.248-.006-.265-.008-.505-.052-.749-.223-.401-.279-.864-.442-1.346-.239l-.26.493c-.31-.232-.585-.381-.819.018-.034.056-.182.05-.277.066-.338.055-.678.096-1.014.164-.158.033-.307.113-.479.179 0 .423.006.812-.004 1.2-.004.166.013.367-.072.487-.156.223-.158.457-.163.699-.018 1.004-.028 2.007-.046 3.011-.004.19.033.396-.14.548h-1.021c-.146-.148-.226-.292-.342-.333-.156-.057-.251.076-.332.215-.036.062-.16.083-.248.1-.334.061-.668.112-1.012.168-.084.27-.117.533-.11.794v3.051a.397.397 0 0 1-.159.107c-.294.115-.353.372-.367.658-.015.273.046.557-.067.881-.028-.108-.052-.155-.052-.201-.02-2.056-.037-4.112-.054-6.168l-.004-.588c-.002-.153-.031-.298-.177-.377-.23-.126-.254-.334-.26-.564-.009-.285.054-.582-.079-.869-.114-.018-.213-.057-.302-.042-.312.052-.606.074-.929-.007-.297-.074-.643-.073-.924.124-.429.299-.811.636-.847 1.214-.003.042-.047.082-.085.146l-.463.14c-.189.085-.008.429-.349.441-.023-.14-.062-.276-.065-.413-.012-.441-.004-.882-.017-1.322-.004-.138-.047-.274-.074-.418-.76-.144-1.491-.128-2.218-.101-.058-.071-.104-.124-.147-.18-.275-.359-.354-.359-.633.004-.043.057-.072.141-.13.169-.246.119-.244.337-.259.561-.018.286.054.589-.136.854-.544.136-1.126-.073-1.691.187-.007.246-.019.487-.02.729-.013 2.645-.021 5.289-.037 7.933-.002.212.062.44-.12.658-.713 0-1.446.028-2.176-.008-.75-.037-1.5.141-2.298.014-.014-.27-.037-.51-.039-.75-.005-1.077-.002-2.155-.008-3.232 0-.09-.049-.18-.072-.258l-.684-.193a386.63 386.63 0 0 1-.111-1.173l-.493-.24c-.026-1.024-.03-2.054-.541-3.012l-.581-.102c-.079.067-.131.091-.15.132-.354.737-.462 1.527-.485 2.334-.005.168.077.248.23.323.166.081.223.25.092.462-.276.026-.618-.159-.871.164-.098.357.026.76-.124 1.198-.373-.32-.548-.083-.71.172-.018 1.799-.034 3.585-.053 5.372-.003.22-.01.441-.025.66-.007.097-.045.19-.224.169-.134-.196-.076-.444-.077-.674-.004-2.938-.003-5.876-.003-8.814 0-.784.007-1.567-.004-2.351-.003-.189-.003-.438-.113-.554-.2-.209-.185-.434-.2-.674-.011-.162-.048-.322-.079-.525l-6.185-.092c-.066.455-.49.283-.786.429-.015.148-.032.29-.042.433-.04.634-.076 1.269-.118 1.903-.023.365-.074.73-.078 1.095-.023 2.399-.035 4.798-.056 7.198-.008.906-.025 1.811-.048 2.717-.018.744-.116.829-.849.877-.31.021-.636-.015-.944.148-.109.562-.014 1.128-.091 1.684-.029-.033-.067-.061-.08-.097-.016-.044-.002-.099-.015-.145-.118-.413-.207-.461-.632-.378a4.7 4.7 0 0 1-.576.083.351.351 0 0 1-.382-.281c-.088-.378-.204-.766-.196-1.146.012-.55-.24-.916-.643-1.298-.168.225-.355.398-.443.612-.107.26-.132.555-.194.846-.471.15-.971-.052-1.453.109-.025.105-.075.201-.064.29.051.417-.132.741-.354 1.072-.154.23-.328.357-.599.335-.402-.033-.804-.076-1.25-.118v-.763c0-1.444.004-2.889-.002-4.334a9.483 9.483 0 0 0-.052-1.025 14.02 14.02 0 0 1-.053-2.345c.014-.245.054-.479-.241-.625-.081-.041-.134-.286-.091-.396.145-.376.064-.658-.239-.909-.074-.061-.097-.185-.17-.333l-.419.57c-.241-.129-.225-.382-.3-.577-.541-1.414-.925-2.884-1.523-4.277a.424.424 0 0 1-.041-.205c.074-.729-.28-1.377-.377-2.074-.004-.031-.055-.056-.107-.105-.206.457-.159.964-.351 1.407a.185.185 0 0 0 .013.143c.081.149.012.246-.057.387-.124.259-.168.556-.245.837-.276 1.015-.534 2.035-.837 3.042-.118.391-.326.759-.522 1.122-.062.111-.221.168-.355.265l-.4-.519c-.159.237-.372.42-.409.635-.091.526-.241 1.033-.374 1.547.108.808-.007 1.61-.044 2.416-.047 1.002-.06 2.006-.092 3.009-.002.079-.04.158-.078.295-.211-.52-.211-.52-.748-.75l-.151-.698c-.186-.015-.33-.032-.476-.036-.488-.014-.987.033-1.464-.049-.504-.087-.951.06-1.434.121-.03.123-.071.215-.072.307-.003.278-.025.532-.311.691-.037.021.019.208.031.317-.28.311-.718.061-1.062.298-.021.147-.055.311-.068.476-.021.244-.023.489-.047.733-.018.185-.126.279-.283.266-.158-.015-.291-.083-.309-.254-.021-.219-.021-.44-.021-.66.01-4.31.022-8.619.028-12.929.001-.261.076-.537-.115-.842-1.697-.026-3.422-.13-5.138.231-.114.287-.075.558-.077.822-.019 2.057-.031 4.113-.052 6.169-.002.237.06.492-.137.724l-.819.104c-.162.606.024 1.211-.197 1.775-.126.014-.222.025-.317.034-.421.04-.668.29-.753.683-.062.283-.059.579-.102.867-.034.233.07.493-.143.728-.409-.04-.844.01-1.315-.192.169-.396-.168-.692-.185-1.035-.019-.399-.346-.633-.369-1.02-.156.144-.241.312-.472.309-.189-.002-.378.086-.57.104a1.068 1.068 0 0 0-.631.262l-.029 1.15c-.003.11-.051.18-.199.171-.009-.142-.023-.286-.023-.431 0-.465.009-.93.007-1.396 0-.146.032-.348-.047-.426-.28-.277-.235-.689-.476-1.004l-.759-.12-.217-.431h-1.229c-.186-.476.017-.962-.16-1.391-.095-.029-.162-.068-.23-.068-.609-.003-1.221.028-1.828-.005-.559-.03-1.112.069-1.676-.017-.661-.101-.994.214-1.036.885-.016.244.001.495-.229.647-.271.061-.552-.059-.799.106-.155.419.004.884-.177 1.288-.342.044-.667.159-.962.106-.39-.069-.698.062-1.063.156l-.054 1.294c-.152.083-.29.197-.447.238-.513.13-1.017.295-1.558.305-.382.006-.474.122-.503.487-.024.293-.027.587-.036.88-.009.294.011.583-.32.761-.089.047-.11.256-.124.394-.037.365-.048.732-.081 1.097-.01.112-.212.175-.297.099-.175-.157-.343-.322-.55-.518 0-.454-.003-.943 0-1.431.009-2.007.021-4.015.027-6.022 0-.192.016-.402-.058-.568-.058-.135-.237-.217-.389-.344.024-.607.051-1.217.073-1.827.004-.119.018-.243-.009-.356a658.45 658.45 0 0 0-.948-3.923c-.104-.428-.217-.852 0-1.306-.286-.15-.409-.35-.392-.66.029-.51.008-1.023.008-1.511l-.446-.287.372-.322c-.184-.359-.325-.71-.31-1.107.004-.098-.04-.248-.244-.223-.176.427-.153.926-.41 1.314l.293.376-.379.238v1.903l-.4.309c.214.488.048.954-.069 1.424-.035.142-.067.286-.106.427-.315 1.13-.484 2.297-.877 3.408-.038.107-.013.238-.011.357.004.514.015 1.028.016 1.542.001.171-.005.355-.188.447-.265.134-.285.363-.284.62.001.979 0 1.958-.015 2.937a176.307 176.307 0 0 1-.079 3.084c-.006.163-.017.403-.116.471-.274.185-.263.514-.444.755-.744.045-1.462.045-2.017-.511l-.511.181a91.623 91.623 0 0 0-.099-.667c-.329-.046-.495-.332-.716-.538l-.486.131c-.035-1.121.037-2.196-.013-3.278-.151-.055-.262-.098-.375-.134-.108-.034-.219-.059-.358-.097 0-.431.014-.82-.004-1.209-.018-.379.087-.777-.108-1.147-.718-.055-1.411-.107-2.116-.162-.56.636-.554.636-.582 1.544-.01.338.056.686-.077 1.018l-.721.187c-.017.295-.04.561-.046.827-.028 1.469-.05 2.937-.078 4.405-.02.979-.044 1.958-.073 2.937-.003.099-.059.196-.122.394-.061-.176-.095-.239-.103-.306-.013-.097.006-.197-.011-.292-.047-.275-.161-.391-.432-.414-.194-.017-.391-.004-.586.001-.189.005-.335-.058-.414-.239-.039-.088-.066-.186-.121-.263-.098-.14-.349-.149-.452-.021-.045.055-.069.128-.106.19-.257.423-.361.444-.928.149 0-.436-.01-.898.004-1.362.01-.326-.05-.626-.273-.892.244-.189.279-.418.277-.673-.008-.661-.019-1.323.009-1.982a1.342 1.342 0 0 0-.302-.942c.21-.198.313-.397.308-.662-.011-.49.011-.979.013-1.469.001-.44-.003-.44-.271-.875.263-.381.266-.381.274-.782.014-.588.024-1.175.032-1.763.002-.196.029-.401-.021-.584-.048-.175-.181-.326-.314-.55.352-.095.36-.369.361-.647.006-.882.019-1.764.013-2.645 0-.163-.019-.374-.117-.48-.23-.248-.219-.531-.221-.823-.006-.709-.005-1.419-.017-2.129-.002-.136-.048-.271-.075-.42-.411-.023-.774-.05-1.138-.063a71.705 71.705 0 0 0-1.466-.036c-.207-.003-.407.062-.481.268-.081.23-.143.518.038.699.246.247.236.526.225.815a528.971 528.971 0 0 1-.203 4.543c-.017.337-.101.67-.113 1.007a646.047 646.047 0 0 0-.164 5.211c-.033 1.2-.05 2.399-.082 3.599-.005.182.042.39-.153.561-.269-.231-.02-.598-.292-.846-.208-.054-.492-.221-.716-.162-.278.072-.512-.13-.78-.039-.207.62-.006 1.272-.172 1.888-.31.118-.664.21-.857.002-.304-.328-.644-.29-1.005-.301-1.072-.035-2.147.028-3.213-.166-.419-.076-.799-.164-1.041-.562-.049-.081-.2-.106-.309-.144-.504-.176-1.005.001-1.507.023-.226.01-.358.137-.378.372-.026.304-.086.592-.31.802-.371.349-.534.773-.524 1.3l-.775.168c-.316.736 0 1.536-.288 2.225-.309.159-.607.125-.898.118-.757-.017-1.515-.053-2.272-.063-.289-.004-.449-.147-.569-.457-.234.438-.568.357-.927.273-.042-.085-.095-.167-.125-.256-.083-.248-.248-.352-.504-.315a.66.66 0 0 1-.146.01c-.2-.017-.332-.12-.355-.302-.021-.169-.022-.342-.023-.513-.001-.318.004-.637.006-.955.002-.294-.019-.59.012-.881.032-.306.115-.607.175-.91-.228-.145-.522-.079-.664-.33-.028-.05-.129-.092-.191-.085-.364.036-.65-.183-.963-.296-.279-.103-.527-.268-.833-.111-.502-.104-1.008-.09-1.514-.039-.022.002-.047-.012-.069-.022-.193-.088-.374-.044-.567.021-.38.127-.765.107-1.154.001a1.845 1.845 0 0 0-.645-.076c-.356.033-.614.187-.759.577-.142.383-.298.755-.318 1.136-.244.153-.427.058-.589-.043-.539-.335-1.066-.277-1.591.019-.253.143-.499.299-.758.456-.234-.037-.474-.085-.715-.112-.248-.027-.416-.129-.459-.39a.718.718 0 0 0-.058-.211c-.186-.359-.582-.416-.842-.112-.14.164-.251.352-.352.496-.471.126-.874.139-1.234-.162-.207-.173-.457-.131-.703-.125-.275.007-.443-.257-.739-.281-.415-.033-.766.097-1.131.228v.599h-.003c-.137.021-.263.092-.434.156l-.114-.625c-.342-.095-.644-.257-.681-.672-.52.218-1.019.188-1.505.143-.195-.177-.114-.384-.153-.569-.04-.186-.087-.371-.129-.55-.552-.15-1.064-.056-1.533-.084-.221.125-.271.289-.292.465-.025.215-.033.431-.069.644-.045.254-.217.385-.511.358-.238-.022-.47-.095-.746-.155-.025-.177-.064-.342-.068-.509-.012-.582-.008-1.165-.017-1.747-.004-.235-.006-.463-.157-.685-.092-.135-.088-.327-.102-.496-.023-.297-.026-.596-.038-.905-.18-.051-.316-.124-.452-.122-.729.008-1.463-.104-2.177.046-.287.252-.059.605-.276.885l-.736.272c-.011.249-.026.484-.031.718-.011.432-.011.863-.026 1.294-.005.148.004.324-.08.438-.218.296-.181.616-.2.937-.052.835-.114 1.67-.177 2.555-.049-.087-.085-.122-.086-.158-.047-.883-.091-1.765-.131-2.648-.011-.237-.024-.461-.145-.689-.098-.186-.113-.415-.12-.625-.018-.539-.011-1.078-.015-1.618-.001-.152-.011-.311-.183-.398-.227-.116-.251-.3-.25-.501.003-.367-.012-.734.006-1.1.041-.846-.073-1.678-.26-2.505-.057-.251-.106-.503-.156-.74-.31-.148-.607-.106-.896-.115l-1.974-.057a5.646 5.646 0 0 0-.552-.001c-.608.033-1.219.002-1.828.005-.068 0-.136.04-.231.069-.177.433.026.924-.16 1.405h-1.229l-.052.104v-2.81h-9.663c-1.106-.064-2.211-.017-3.305 0-.19.309-.116.587-.116.852.006 4.354.019 3.249.029 7.603 0 .222-.001.445-.021.666-.017.174-.15.243-.309.257-.157.014-.265-.082-.283-.269-.023-.246-.025-.494-.047-.74-.014-.167-.046-.333-.068-.481-.344-.24-.782.012-1.062-.301.013-.112.069-.3.031-.321-.285-.162-.308-.418-.31-.698-.001-.093-.042-.186-.072-.31-.483-.062-.93-.209-1.434-.122-.477.083-.976.035-1.465.049-.145.004-.289.021-.475.037l-.152.705V42.93H44.608v10.829c-.167-.276-.283-.56-.242-.906.01-.089-.04-.186-.064-.292-.482-.163-.983.041-1.454-.11-.062-.295-.087-.592-.194-.855-.089-.216-.275-.391-.443-.618-.402.386-.656.755-.643 1.311.008.385-.108.776-.196 1.159a.351.351 0 0 1-.382.284 4.703 4.703 0 0 1-.576-.084c-.425-.084-.514-.035-.632.382-.013.046 0 .102-.015.146-.013.037-.051.064-.079.097-.078-.562.017-1.133-.092-1.702-.309-.165-.635-.128-.944-.148-.732-.049-.831-.136-.849-.887-.021-.915-.04-1.83-.047-2.745-.021-2.424-.032.611-.056-1.813-.003-.369-.054-.737-.078-1.106-.042-.641-.078-1.282-.119-1.922-.009-.144-.026-.288-.041-.437-.297-.147-.721.026-.788-.434l-6.184.092c-.032.205-.069.367-.08.531-.016.243 0 .469-.2.681-.111.117-.111.368-.113.559-.012.792-.004 1.584-.004 2.375 0 2.968.001.478-.003 3.446 0 .233.057.483-.077.681-.179.021-.217-.073-.224-.171a9.885 9.885 0 0 1-.024-.667c-.02-1.805-.036-3.61-.054-5.427-.162-.258-.337-.498-.709-.174-.151-.444-.027-.851-.125-1.211-.253-.325-.594-.139-.872-.166-.13-.214-.073-.385.092-.467.153-.076.235-.157.231-.326-.023-.815-.131-1.613-.486-2.358-.019-.041-.071-.065-.15-.133l-.581.104c-.511.968-.515 2.008-.541 3.043-.177.086-.327.161-.493.243l-.111 1.185-.684.196c-.023.079-.072.169-.073.26-.006 1.089-.002 2.177-.008 3.266-.001.242-.024.485-.039.757-.798.129-1.548-.051-2.297-.014-.73.037-1.463.008-2.176.008-.182-.219-.119-.451-.12-.664-.016-2.672-.025-5.344-.038-8.016-.001-.244-.013-.487-.02-.736-.565-.262-1.147-.05-1.691-.188-.19-.268-.118-.574-.136-.863-.014-.225-.013-.445-.258-.565-.058-.028-.087-.113-.131-.171-.278-.366-.356-.366-.632-.004-.043.057-.089.11-.147.182-.727-.027-1.458-.044-2.218.103-.027.146-.07.283-.074.422-.012.445-.005.891-.016 1.336-.004.139-.042.277-.065.418-.34-.013-.16-.36-.349-.447a45.657 45.657 0 0 1-.463-.141c-.038-.064-.082-.104-.085-.146-.036-.583-.418-.925-.847-1.228-.282-.199-.626-.2-.923-.125-.323.082-.618.06-.929.007-.089-.015-.188.025-.302.043-.133.29-.071.589-.079.877-.007.232-.03.443-.26.57-.146.08-.175.227-.177.382l-.003.594a6501.87 6501.87 0 0 1-.054 6.232c0 .047-.023.094-.052.203-.113-.328-.053-.614-.067-.891-.015-.29-.073-.548-.367-.665a.383.383 0 0 1-.159-.109V42.72a2.5 2.5 0 0 0-.11-.802c-.344-.057-.679-.108-1.012-.17-.088-.016-.212-.039-.248-.101-.081-.14-.176-.275-.333-.217-.117.044-.196.188-.342.338H6.964c-.173-.154-.136-.361-.14-.554-.018-1.014-.028-2.028-.046-3.042-.004-.244-.006-.481-.163-.706-.085-.122-.069-.325-.073-.492-.009-.393-.003-.786-.003-1.213-.172-.066-.321-.147-.479-.18-.335-.069-.675-.111-1.013-.166-.096-.016-.244-.009-.277-.066-.235-.403-.51-.253-.82-.018l-.26-.498c-.48-.205-.944-.041-1.345.242-.244.172-.484.217-.75.225-.416.012-.833.004-1.249.006-.114 0-.23-.008-.348.008v30.099h360.249V29.118c-.116-.018-.232-.008-.347-.009m-214.146 7.335c-.005-.018-.014-.035-.012-.051.001-.005.027-.009.042-.013l.015.051a1.07 1.07 0 0 0-.045.013m114.025-21.367l-.2.013-.001-.102c.067.007.135.013.201.022.003.001 0 .034 0 .067m1.595-4.724l-.064.004.02-.092c.019.01.046.015.056.031.006.012-.008.037-.012.057"/></g></svg>